<svg xmlns="http://www.w3.org/2000/svg" width="1260" height="660" viewBox="0 0 1260 660"><defs><marker id="ad9480f" markerWidth="9" markerHeight="9" refX="8" refY="4.5" orient="auto"><path d="M0,0 L9,4.5 L0,9 z" fill="#d9480f"/></marker><marker id="a2b3a4a" markerWidth="9" markerHeight="9" refX="8" refY="4.5" orient="auto"><path d="M0,0 L9,4.5 L0,9 z" fill="#2b3a4a"/></marker><marker id="a1971c2" markerWidth="9" markerHeight="9" refX="8" refY="4.5" orient="auto"><path d="M0,0 L9,4.5 L0,9 z" fill="#1971c2"/></marker><marker id="a2f9e44" markerWidth="9" markerHeight="9" refX="8" refY="4.5" orient="auto"><path d="M0,0 L9,4.5 L0,9 z" fill="#2f9e44"/></marker><marker id="a7048e8" markerWidth="9" markerHeight="9" refX="8" refY="4.5" orient="auto"><path d="M0,0 L9,4.5 L0,9 z" fill="#7048e8"/></marker></defs><rect width="100%" height="100%" fill="#ffffff"/><text x="630.0" y="30" font-size="20" xml:space="preserve" text-anchor="middle" font-weight="bold" fill="#1b2733" font-family="Helvetica, Arial, sans-serif">4-stage RISC201 pipeline:  IF | OF | EX+MA | RW</text><rect x="20" y="50" width="230" height="480" fill="#f7f9fb" stroke="#d5dbe1" rx="4"/><text x="135.0" y="72" font-size="15" xml:space="preserve" text-anchor="middle" font-weight="bold" fill="#34495e" font-family="Helvetica, Arial, sans-serif">IF</text><polygon points="30,215 52,225 52,265 30,275" fill="#fff" stroke="#2b3a4a" stroke-width="1.5"/><text x="41.0" y="249.0" font-size="10" xml:space="preserve" text-anchor="middle" font-weight="bold" fill="#1b2733" font-family="Helvetica, Arial, sans-serif">M</text><rect x="70" y="220" width="50" height="50" rx="6" fill="#fff" stroke="#2b3a4a" stroke-width="1.5"/><text x="95.0" y="250.0" font-size="13" xml:space="preserve" text-anchor="middle" font-weight="bold" fill="#1b2733" font-family="Helvetica, Arial, sans-serif">PC</text><rect x="70" y="128" width="50" height="36" rx="6" fill="#fff" stroke="#2b3a4a" stroke-width="1.5"/><text x="95.0" y="151.0" font-size="13" xml:space="preserve" text-anchor="middle" font-weight="bold" fill="#1b2733" font-family="Helvetica, Arial, sans-serif">+4</text><rect x="140" y="195" width="100" height="100" rx="6" fill="#fff4e0" stroke="#2b3a4a" stroke-width="1.5"/><text x="190.0" y="242.0" font-size="12" xml:space="preserve" text-anchor="middle" font-weight="bold" fill="#1b2733" font-family="Helvetica, Arial, sans-serif">Instruction</text><text x="190.0" y="257.0" font-size="12" xml:space="preserve" text-anchor="middle" font-weight="bold" fill="#1b2733" font-family="Helvetica, Arial, sans-serif">memory</text><polyline points="52,245 70,245" fill="none" stroke="#2b3a4a" stroke-width="1.6" marker-end="url(#a2b3a4a)"/><polyline points="120,245 140,245" fill="none" stroke="#2b3a4a" stroke-width="1.6" marker-end="url(#a2b3a4a)"/><polyline points="95,220 95,164" fill="none" stroke="#2b3a4a" stroke-width="1.6" marker-end="url(#a2b3a4a)"/><polyline points="70,146 15,146 15,228 30,228" fill="none" stroke="#2b3a4a" stroke-width="1.6" marker-end="url(#a2b3a4a)"/><text x="40" y="140" font-size="10" xml:space="preserve" text-anchor="middle" font-weight="normal" fill="#444" font-family="Helvetica, Arial, sans-serif">PC+4</text><rect x="280" y="50" width="290" height="480" fill="#f7f9fb" stroke="#d5dbe1" rx="4"/><text x="425.0" y="72" font-size="15" xml:space="preserve" text-anchor="middle" font-weight="bold" fill="#34495e" font-family="Helvetica, Arial, sans-serif">OF</text><rect x="600" y="50" width="420" height="480" fill="#f7f9fb" stroke="#d5dbe1" rx="4"/><text x="810.0" y="72" font-size="15" xml:space="preserve" text-anchor="middle" font-weight="bold" fill="#34495e" font-family="Helvetica, Arial, sans-serif">EX + MA</text><rect x="1050" y="50" width="190" height="480" fill="#f7f9fb" stroke="#d5dbe1" rx="4"/><text x="1145.0" y="72" font-size="15" xml:space="preserve" text-anchor="middle" font-weight="bold" fill="#34495e" font-family="Helvetica, Arial, sans-serif">RW</text><rect x="258" y="80" width="14" height="340" fill="#9aa6b2" stroke="#2b3a4a"/><text x="265" y="72" font-size="10" xml:space="preserve" text-anchor="middle" font-weight="bold" fill="#1b2733" font-family="Helvetica, Arial, sans-serif">IF/OF</text><rect x="578" y="80" width="14" height="340" fill="#9aa6b2" stroke="#2b3a4a"/><text x="585" y="72" font-size="10" xml:space="preserve" text-anchor="middle" font-weight="bold" fill="#1b2733" font-family="Helvetica, Arial, sans-serif">OF/EX</text><rect x="1028" y="80" width="14" height="340" fill="#9aa6b2" stroke="#2b3a4a"/><text x="1035" y="72" font-size="10" xml:space="preserve" text-anchor="middle" font-weight="bold" fill="#1b2733" font-family="Helvetica, Arial, sans-serif">EX/RW</text><polyline points="240,245 258,245" fill="none" stroke="#2b3a4a" stroke-width="1.6" marker-end="url(#a2b3a4a)"/><rect x="290" y="185" width="120" height="120" rx="6" fill="#f3eaff" stroke="#2b3a4a" stroke-width="1.5"/><text x="350.0" y="227.0" font-size="12" xml:space="preserve" text-anchor="middle" font-weight="bold" fill="#1b2733" font-family="Helvetica, Arial, sans-serif">Decode +</text><text x="350.0" y="242.0" font-size="12" xml:space="preserve" text-anchor="middle" font-weight="bold" fill="#1b2733" font-family="Helvetica, Arial, sans-serif">control</text><text x="350.0" y="261.0" font-size="10" xml:space="preserve" text-anchor="middle" font-weight="normal" fill="#555" font-family="Helvetica, Arial, sans-serif">split fields</text><text x="350.0" y="274.0" font-size="10" xml:space="preserve" text-anchor="middle" font-weight="normal" fill="#555" font-family="Helvetica, Arial, sans-serif">opcode -> signals</text><polyline points="272,245 290,245" fill="none" stroke="#2b3a4a" stroke-width="1.6" marker-end="url(#a2b3a4a)"/><rect x="440" y="150" width="120" height="130" rx="6" fill="#fff" stroke="#2b3a4a" stroke-width="1.5"/><text x="500.0" y="197.0" font-size="13" xml:space="preserve" text-anchor="middle" font-weight="bold" fill="#1b2733" font-family="Helvetica, Arial, sans-serif">Register</text><text x="500.0" y="213.0" font-size="13" xml:space="preserve" text-anchor="middle" font-weight="bold" fill="#1b2733" font-family="Helvetica, Arial, sans-serif">file</text><text x="500.0" y="233.0" font-size="10" xml:space="preserve" text-anchor="middle" font-weight="normal" fill="#555" font-family="Helvetica, Arial, sans-serif">read rs1, rs2</text><text x="500.0" y="246.0" font-size="10" xml:space="preserve" text-anchor="middle" font-weight="normal" fill="#555" font-family="Helvetica, Arial, sans-serif">(st also reads rd)</text><rect x="440" y="300" width="120" height="50" rx="6" fill="#fff" stroke="#2b3a4a" stroke-width="1.5"/><text x="500.0" y="321.0" font-size="12" xml:space="preserve" text-anchor="middle" font-weight="bold" fill="#1b2733" font-family="Helvetica, Arial, sans-serif">Immediate</text><text x="500.0" y="340.0" font-size="10" xml:space="preserve" text-anchor="middle" font-weight="normal" fill="#555" font-family="Helvetica, Arial, sans-serif">sign / u / h</text><rect x="440" y="370" width="120" height="56" rx="6" fill="#fff" stroke="#2b3a4a" stroke-width="1.5"/><text x="500.0" y="394.0" font-size="12" xml:space="preserve" text-anchor="middle" font-weight="bold" fill="#1b2733" font-family="Helvetica, Arial, sans-serif">Branch target</text><text x="500.0" y="413.0" font-size="10" xml:space="preserve" text-anchor="middle" font-weight="normal" fill="#555" font-family="Helvetica, Arial, sans-serif">PC + offset x 4</text><polyline points="410,245 425,245" fill="none" stroke="#2b3a4a" stroke-width="1.6"/><polyline points="425,215 425,398" fill="none" stroke="#2b3a4a" stroke-width="1.6"/><polyline points="425,215 440,215" fill="none" stroke="#2b3a4a" stroke-width="1.6" marker-end="url(#a2b3a4a)"/><polyline points="425,325 440,325" fill="none" stroke="#2b3a4a" stroke-width="1.6" marker-end="url(#a2b3a4a)"/><polyline points="425,398 440,398" fill="none" stroke="#2b3a4a" stroke-width="1.6" marker-end="url(#a2b3a4a)"/><polyline points="560,190 578,190" fill="none" stroke="#2b3a4a" stroke-width="1.6" marker-end="url(#a2b3a4a)"/><polyline points="560,255 578,255" fill="none" stroke="#2b3a4a" stroke-width="1.6" marker-end="url(#a2b3a4a)"/><polyline points="560,325 578,325" fill="none" stroke="#2b3a4a" stroke-width="1.6" marker-end="url(#a2b3a4a)"/><polyline points="560,398 578,398" fill="none" stroke="#2b3a4a" stroke-width="1.6" marker-end="url(#a2b3a4a)"/><polygon points="612,165 634,175 634,205 612,215" fill="#fff" stroke="#2b3a4a" stroke-width="1.5"/><text x="623.0" y="194.0" font-size="10" xml:space="preserve" text-anchor="middle" font-weight="bold" fill="#1b2733" font-family="Helvetica, Arial, sans-serif">F</text><polygon points="612,230 634,240 634,280 612,290" fill="#fff" stroke="#2b3a4a" stroke-width="1.5"/><text x="623.0" y="264.0" font-size="10" xml:space="preserve" text-anchor="middle" font-weight="bold" fill="#1b2733" font-family="Helvetica, Arial, sans-serif">F</text><polyline points="592,190 612,190" fill="none" stroke="#2b3a4a" stroke-width="1.6" marker-end="url(#a2b3a4a)"/><polyline points="592,255 612,255" fill="none" stroke="#2b3a4a" stroke-width="1.6" marker-end="url(#a2b3a4a)"/><polyline points="592,325 602,325 602,278 612,278" fill="none" stroke="#2b3a4a" stroke-width="1.6" marker-end="url(#a2b3a4a)"/><rect x="660" y="170" width="120" height="110" rx="6" fill="#e6f7ea" stroke="#2b3a4a" stroke-width="1.5"/><text x="720.0" y="215.0" font-size="13" xml:space="preserve" text-anchor="middle" font-weight="bold" fill="#1b2733" font-family="Helvetica, Arial, sans-serif">ALU</text><text x="720.0" y="235.0" font-size="10" xml:space="preserve" text-anchor="middle" font-weight="normal" fill="#555" font-family="Helvetica, Arial, sans-serif">add sub mul div mod</text><text x="720.0" y="248.0" font-size="10" xml:space="preserve" text-anchor="middle" font-weight="normal" fill="#555" font-family="Helvetica, Arial, sans-serif">and or not shifts</text><polyline points="634,190 660,190" fill="none" stroke="#2b3a4a" stroke-width="1.6" marker-end="url(#a2b3a4a)"/><polyline points="634,260 660,260" fill="none" stroke="#2b3a4a" stroke-width="1.6" marker-end="url(#a2b3a4a)"/><rect x="660" y="318" width="150" height="72" rx="6" fill="#e6f7ea" stroke="#2b3a4a" stroke-width="1.5"/><text x="735.0" y="343.5" font-size="12" xml:space="preserve" text-anchor="middle" font-weight="bold" fill="#1b2733" font-family="Helvetica, Arial, sans-serif">Branch unit</text><text x="735.0" y="362.5" font-size="10" xml:space="preserve" text-anchor="middle" font-weight="normal" fill="#555" font-family="Helvetica, Arial, sans-serif">flags E, GT (set by cmp)</text><text x="735.0" y="375.5" font-size="10" xml:space="preserve" text-anchor="middle" font-weight="normal" fill="#555" font-family="Helvetica, Arial, sans-serif">taken? beq bgt b call ret</text><polyline points="592,398 646,398 646,372 660,372" fill="none" stroke="#2b3a4a" stroke-width="1.6" marker-end="url(#a2b3a4a)"/><rect x="840" y="180" width="120" height="100" rx="6" fill="#fff4e0" stroke="#2b3a4a" stroke-width="1.5"/><text x="900.0" y="218.5" font-size="12" xml:space="preserve" text-anchor="middle" font-weight="bold" fill="#1b2733" font-family="Helvetica, Arial, sans-serif">Data</text><text x="900.0" y="233.5" font-size="12" xml:space="preserve" text-anchor="middle" font-weight="bold" fill="#1b2733" font-family="Helvetica, Arial, sans-serif">memory</text><text x="900.0" y="252.5" font-size="10" xml:space="preserve" text-anchor="middle" font-weight="normal" fill="#555" font-family="Helvetica, Arial, sans-serif">ld reads / st writes</text><polyline points="780,225 840,225" fill="none" stroke="#2b3a4a" stroke-width="1.6" marker-end="url(#a2b3a4a)"/><polyline points="810,225 810,300 1028,300" fill="none" stroke="#2b3a4a" stroke-width="1.6" marker-end="url(#a2b3a4a)"/><text x="920" y="294" font-size="10" xml:space="preserve" text-anchor="middle" font-weight="normal" fill="#1b2733" font-family="Helvetica, Arial, sans-serif">ALU result</text><polyline points="960,230 1028,230" fill="none" stroke="#2b3a4a" stroke-width="1.6" marker-end="url(#a2b3a4a)"/><polyline points="810,340 822,340 822,44 8,44 8,262 30,262" fill="none" stroke="#1971c2" stroke-width="1.6" marker-end="url(#a1971c2)"/><text x="160" y="39" font-size="11" xml:space="preserve" text-anchor="middle" font-weight="normal" fill="#1971c2" font-family="Helvetica, Arial, sans-serif">branch target (if taken)</text><rect x="840" y="330" width="160" height="60" rx="6" fill="#e7f5ff" stroke="#2b3a4a" stroke-width="1.5" stroke-dasharray="4,3"/><text x="920.0" y="349.5" font-size="12" xml:space="preserve" text-anchor="middle" font-weight="bold" fill="#1b2733" font-family="Helvetica, Arial, sans-serif">ld finishes here</text><text x="920.0" y="368.5" font-size="10" xml:space="preserve" text-anchor="middle" font-weight="normal" fill="#555" font-family="Helvetica, Arial, sans-serif">-> value ready for the next</text><text x="920.0" y="381.5" font-size="10" xml:space="preserve" text-anchor="middle" font-weight="normal" fill="#555" font-family="Helvetica, Arial, sans-serif">instruction: no load-use stall</text><polygon points="1130,200 1152,210 1152,305 1130,315" fill="#fff" stroke="#2b3a4a" stroke-width="1.5"/><text x="1141.0" y="261.5" font-size="10" xml:space="preserve" text-anchor="middle" font-weight="bold" fill="#1b2733" font-family="Helvetica, Arial, sans-serif">M</text><polyline points="1042,230 1130,230" fill="none" stroke="#2b3a4a" stroke-width="1.6" marker-end="url(#a2b3a4a)"/><text x="1085" y="225" font-size="9" xml:space="preserve" text-anchor="middle" font-weight="normal" fill="#1b2733" font-family="Helvetica, Arial, sans-serif">mem data</text><polyline points="1042,265 1130,265" fill="none" stroke="#2b3a4a" stroke-width="1.6" marker-end="url(#a2b3a4a)"/><text x="1085" y="260" font-size="9" xml:space="preserve" text-anchor="middle" font-weight="normal" fill="#1b2733" font-family="Helvetica, Arial, sans-serif">PC+4 (call)</text><polyline points="1042,300 1130,300" fill="none" stroke="#2b3a4a" stroke-width="1.6" marker-end="url(#a2b3a4a)"/><text x="1085" y="295" font-size="9" xml:space="preserve" text-anchor="middle" font-weight="normal" fill="#1b2733" font-family="Helvetica, Arial, sans-serif">ALU result</text><polyline points="1152,257 1190,257 1190,118 500,118 500,150" fill="none" stroke="#2f9e44" stroke-width="1.6" marker-end="url(#a2f9e44)"/><text x="800" y="112" font-size="11" xml:space="preserve" text-anchor="middle" font-weight="normal" fill="#2f9e44" font-family="Helvetica, Arial, sans-serif">write back rd (or ra for call)</text><rect x="620" y="452" width="180" height="46" rx="6" fill="#fff4e6" stroke="#2b3a4a" stroke-width="1.5"/><text x="710.0" y="471.0" font-size="12" xml:space="preserve" text-anchor="middle" font-weight="bold" fill="#1b2733" font-family="Helvetica, Arial, sans-serif">Forwarding unit</text><text x="710.0" y="490.0" font-size="10" xml:space="preserve" text-anchor="middle" font-weight="normal" fill="#555" font-family="Helvetica, Arial, sans-serif">RW value, else reg file</text><polyline points="1190,257 1190,510 710,510 710,498" fill="none" stroke="#d9480f" stroke-width="1.6" stroke-dasharray="6,4" marker-end="url(#ad9480f)"/><polyline points="640,452 640,300 628,290" fill="none" stroke="#d9480f" stroke-width="1.6" stroke-dasharray="6,4" marker-end="url(#ad9480f)"/><text x="1040" y="505" font-size="10" xml:space="preserve" text-anchor="middle" font-weight="normal" fill="#d9480f" font-family="Helvetica, Arial, sans-serif">from RW</text><polyline points="735,390 735,438 268,438" fill="none" stroke="#7048e8" stroke-width="1.6" stroke-dasharray="2,3"/><polyline points="268,438 268,422" fill="none" stroke="#7048e8" stroke-width="1.6" stroke-dasharray="2,3" marker-end="url(#a7048e8)"/><polyline points="588,438 588,422" fill="none" stroke="#7048e8" stroke-width="1.6" stroke-dasharray="2,3" marker-end="url(#a7048e8)"/><text x="430" y="456" font-size="10" xml:space="preserve" text-anchor="middle" font-weight="normal" fill="#7048e8" font-family="Helvetica, Arial, sans-serif">flush IF/OF, OF/EX when branch taken</text><polyline points="30,575 70,575" fill="none" stroke="#2b3a4a" stroke-width="1.6"/><text x="78" y="579" font-size="11" xml:space="preserve" text-anchor="start" font-weight="normal" fill="#1b2733" font-family="Helvetica, Arial, sans-serif">data</text><polyline points="130,575 170,575" fill="none" stroke="#1971c2" stroke-width="1.6" marker-end="url(#a1971c2)"/><text x="178" y="579" font-size="11" xml:space="preserve" text-anchor="start" font-weight="normal" fill="#1b2733" font-family="Helvetica, Arial, sans-serif">branch target</text><polyline points="290,575 330,575" fill="none" stroke="#2f9e44" stroke-width="1.6" marker-end="url(#a2f9e44)"/><text x="338" y="579" font-size="11" xml:space="preserve" text-anchor="start" font-weight="normal" fill="#1b2733" font-family="Helvetica, Arial, sans-serif">write back</text><polyline points="430,575 470,575" fill="none" stroke="#d9480f" stroke-width="1.6" stroke-dasharray="6,4" marker-end="url(#ad9480f)"/><text x="478" y="579" font-size="11" xml:space="preserve" text-anchor="start" font-weight="normal" fill="#1b2733" font-family="Helvetica, Arial, sans-serif">forwarding</text><polyline points="580,575 620,575" fill="none" stroke="#7048e8" stroke-width="1.6" stroke-dasharray="2,3" marker-end="url(#a7048e8)"/><text x="628" y="579" font-size="11" xml:space="preserve" text-anchor="start" font-weight="normal" fill="#1b2733" font-family="Helvetica, Arial, sans-serif">stall / flush control</text><text x="30" y="603" font-size="12" xml:space="preserve" text-anchor="start" font-weight="normal" fill="#333" font-family="Helvetica, Arial, sans-serif">No load-use stall (memory access is inside EX).   Taken branch: 2 instructions flushed.   No hazard-detection unit needed.</text><text x="30" y="621" font-size="12" xml:space="preserve" text-anchor="start" font-weight="normal" fill="#333" font-family="Helvetica, Arial, sans-serif">Clock period is set by EX+MA together (the slowest stage), so it is longer than the 6-stage design.</text></svg>